<svg width="328" height="226" viewBox="0 0 328 226" fill="none" xmlns="http://www.w3.org/2000/svg">
<path d="M248.44 38L246.78 35.15H245.68V38H244.77V31.03H247.02C247.547 31.03 247.99 31.12 248.35 31.3C248.717 31.48 248.99 31.7233 249.17 32.03C249.35 32.3367 249.44 32.6867 249.44 33.08C249.44 33.56 249.3 33.9833 249.02 34.35C248.747 34.7167 248.333 34.96 247.78 35.08L249.53 38H248.44ZM245.68 34.42H247.02C247.513 34.42 247.883 34.3 248.13 34.06C248.377 33.8133 248.5 33.4867 248.5 33.08C248.5 32.6667 248.377 32.3467 248.13 32.12C247.89 31.8933 247.52 31.78 247.02 31.78H245.68V34.42ZM255.354 36.09C255.354 36.41 255.274 36.7167 255.114 37.01C254.954 37.2967 254.717 37.5367 254.404 37.73C254.097 37.9233 253.727 38.0333 253.294 38.06V38.87H252.754V38.06C252.147 38.0067 251.654 37.8133 251.274 37.48C250.894 37.14 250.701 36.71 250.694 36.19H251.664C251.691 36.47 251.794 36.7133 251.974 36.92C252.161 37.1267 252.421 37.2567 252.754 37.31V34.81C252.307 34.6967 251.947 34.58 251.674 34.46C251.401 34.34 251.167 34.1533 250.974 33.9C250.781 33.6467 250.684 33.3067 250.684 32.88C250.684 32.34 250.871 31.8933 251.244 31.54C251.624 31.1867 252.127 30.99 252.754 30.95V30.12H253.294V30.95C253.861 30.9967 254.317 31.18 254.664 31.5C255.011 31.8133 255.211 32.2233 255.264 32.73H254.294C254.261 32.4967 254.157 32.2867 253.984 32.1C253.811 31.9067 253.581 31.78 253.294 31.72V34.16C253.734 34.2733 254.091 34.39 254.364 34.51C254.644 34.6233 254.877 34.8067 255.064 35.06C255.257 35.3133 255.354 35.6567 255.354 36.09ZM251.614 32.83C251.614 33.1567 251.711 33.4067 251.904 33.58C252.097 33.7533 252.381 33.8967 252.754 34.01V31.7C252.407 31.7333 252.131 31.8467 251.924 32.04C251.717 32.2267 251.614 32.49 251.614 32.83ZM253.294 37.32C253.654 37.28 253.934 37.15 254.134 36.93C254.341 36.71 254.444 36.4467 254.444 36.14C254.444 35.8133 254.344 35.5633 254.144 35.39C253.944 35.21 253.661 35.0667 253.294 34.96V37.32ZM256.685 31.6V30.77H258.565V38H257.645V31.6H256.685ZM260.568 38.06C260.394 38.06 260.248 38 260.128 37.88C260.008 37.76 259.948 37.6133 259.948 37.44C259.948 37.2667 260.008 37.12 260.128 37C260.248 36.88 260.394 36.82 260.568 36.82C260.734 36.82 260.874 36.88 260.988 37C261.108 37.12 261.168 37.2667 261.168 37.44C261.168 37.6133 261.108 37.76 260.988 37.88C260.874 38 260.734 38.06 260.568 38.06ZM266.677 31.48L263.897 38H262.977L265.797 31.57H261.937V30.79H266.677V31.48ZM267.446 31.6V30.77H269.326V38H268.406V31.6H267.446ZM270.67 36.39V35.7L274.18 30.84H275.27V35.6H276.27V36.39H275.27V38H274.37V36.39H270.67ZM274.41 31.79L271.72 35.6H274.41V31.79ZM278.269 36.74L277.149 39.43H276.539L277.269 36.74H278.269ZM279.051 37.27C279.898 36.59 280.561 36.0333 281.041 35.6C281.521 35.16 281.924 34.7033 282.251 34.23C282.584 33.75 282.751 33.28 282.751 32.82C282.751 32.3867 282.644 32.0467 282.431 31.8C282.224 31.5467 281.888 31.42 281.421 31.42C280.968 31.42 280.614 31.5633 280.361 31.85C280.114 32.13 279.981 32.5067 279.961 32.98H279.081C279.108 32.2333 279.334 31.6567 279.761 31.25C280.188 30.8433 280.738 30.64 281.411 30.64C282.098 30.64 282.641 30.83 283.041 31.21C283.448 31.59 283.651 32.1133 283.651 32.78C283.651 33.3333 283.484 33.8733 283.151 34.4C282.824 34.92 282.451 35.38 282.031 35.78C281.611 36.1733 281.074 36.6333 280.421 37.16H283.861V37.92H279.051V37.27ZM284.803 37.27C285.65 36.59 286.313 36.0333 286.793 35.6C287.273 35.16 287.676 34.7033 288.003 34.23C288.336 33.75 288.503 33.28 288.503 32.82C288.503 32.3867 288.396 32.0467 288.183 31.8C287.976 31.5467 287.64 31.42 287.173 31.42C286.72 31.42 286.366 31.5633 286.113 31.85C285.866 32.13 285.733 32.5067 285.713 32.98H284.833C284.86 32.2333 285.086 31.6567 285.513 31.25C285.94 30.8433 286.49 30.64 287.163 30.64C287.85 30.64 288.393 30.83 288.793 31.21C289.2 31.59 289.403 32.1133 289.403 32.78C289.403 33.3333 289.236 33.8733 288.903 34.4C288.576 34.92 288.203 35.38 287.783 35.78C287.363 36.1733 286.826 36.6333 286.173 37.16H289.613V37.92H284.803V37.27Z" fill="#BFF52F"/>
<path d="M247.76 18.384V18.688H246.16V24H245.8V18.688H244.2V18.384H247.76ZM252.529 21.536C252.529 21.728 252.524 21.872 252.513 21.968H248.761C248.772 22.3573 248.857 22.6853 249.017 22.952C249.177 23.2187 249.388 23.4187 249.649 23.552C249.91 23.6853 250.196 23.752 250.505 23.752C250.932 23.752 251.289 23.648 251.577 23.44C251.865 23.2267 252.046 22.9387 252.121 22.576H252.497C252.412 23.0187 252.193 23.3787 251.841 23.656C251.489 23.928 251.044 24.064 250.505 24.064C250.1 24.064 249.737 23.9733 249.417 23.792C249.097 23.6107 248.846 23.352 248.665 23.016C248.484 22.6747 248.393 22.2773 248.393 21.824C248.393 21.3707 248.481 20.976 248.657 20.64C248.838 20.304 249.089 20.048 249.409 19.872C249.729 19.6907 250.094 19.6 250.505 19.6C250.921 19.6 251.281 19.6907 251.585 19.872C251.894 20.048 252.129 20.2853 252.289 20.584C252.449 20.8773 252.529 21.1947 252.529 21.536ZM252.169 21.672C252.185 21.288 252.116 20.9627 251.961 20.696C251.812 20.4293 251.606 20.232 251.345 20.104C251.084 19.9707 250.801 19.904 250.497 19.904C250.193 19.904 249.91 19.9707 249.649 20.104C249.393 20.232 249.182 20.4293 249.017 20.696C248.857 20.9627 248.772 21.288 248.761 21.672H252.169ZM253.977 20.552C254.084 20.232 254.273 19.9893 254.545 19.824C254.817 19.6533 255.164 19.568 255.585 19.568V19.944H255.465C255.038 19.944 254.684 20.0667 254.401 20.312C254.118 20.552 253.977 20.9467 253.977 21.496V24H253.617V19.656H253.977V20.552ZM256.654 23.16L255.902 25.208H255.63L256.238 23.16H256.654ZM259.692 21.128C259.692 20.2053 259.826 19.496 260.092 19C260.359 18.4987 260.85 18.248 261.564 18.248C262.274 18.248 262.762 18.4987 263.028 19C263.295 19.496 263.428 20.2053 263.428 21.128C263.428 22.0613 263.295 22.7813 263.028 23.288C262.762 23.7893 262.274 24.04 261.564 24.04C260.85 24.04 260.359 23.7893 260.092 23.288C259.826 22.7813 259.692 22.0613 259.692 21.128ZM263.076 21.128C263.076 20.5947 263.036 20.144 262.956 19.776C262.882 19.408 262.732 19.1173 262.508 18.904C262.29 18.6853 261.975 18.576 261.564 18.576C261.154 18.576 260.836 18.6853 260.612 18.904C260.394 19.1173 260.244 19.408 260.164 19.776C260.09 20.144 260.052 20.5947 260.052 21.128C260.052 21.672 260.09 22.1307 260.164 22.504C260.244 22.872 260.394 23.1653 260.612 23.384C260.836 23.6027 261.154 23.712 261.564 23.712C261.975 23.712 262.29 23.6027 262.508 23.384C262.732 23.1653 262.882 22.872 262.956 22.504C263.036 22.1307 263.076 21.672 263.076 21.128ZM264.481 19.8C264.529 19.3147 264.715 18.9333 265.041 18.656C265.371 18.3787 265.806 18.24 266.345 18.24C266.691 18.24 266.987 18.304 267.233 18.432C267.478 18.5547 267.665 18.7227 267.793 18.936C267.921 19.1493 267.985 19.392 267.985 19.664C267.985 20.0053 267.881 20.3013 267.673 20.552C267.465 20.7973 267.147 20.944 266.721 20.992V21.04C267.131 21.104 267.462 21.2613 267.713 21.512C267.963 21.7627 268.089 22.0987 268.089 22.52C268.089 22.968 267.939 23.336 267.641 23.624C267.347 23.9067 266.915 24.048 266.345 24.048C265.806 24.048 265.361 23.904 265.009 23.616C264.662 23.328 264.454 22.92 264.385 22.392H264.737C264.801 22.7867 264.971 23.1093 265.249 23.36C265.526 23.6053 265.891 23.728 266.345 23.728C266.803 23.728 267.15 23.6133 267.385 23.384C267.625 23.1547 267.745 22.8587 267.745 22.496C267.745 22.0587 267.577 21.7307 267.241 21.512C266.91 21.2933 266.435 21.184 265.817 21.184H265.665V20.872H265.825C267.03 20.8667 267.633 20.472 267.633 19.688C267.633 19.3467 267.518 19.072 267.289 18.864C267.065 18.656 266.747 18.552 266.337 18.552C265.937 18.552 265.598 18.6587 265.321 18.872C265.049 19.08 264.886 19.3893 264.833 19.8H264.481ZM271.763 18.688C271.678 18.688 271.606 18.6613 271.547 18.608C271.489 18.5493 271.459 18.472 271.459 18.376C271.459 18.2853 271.489 18.2107 271.547 18.152C271.606 18.0933 271.678 18.064 271.763 18.064C271.849 18.064 271.921 18.0933 271.979 18.152C272.043 18.2107 272.075 18.2853 272.075 18.376C272.075 18.4667 272.043 18.5413 271.979 18.6C271.921 18.6587 271.849 18.688 271.763 18.688ZM271.947 25.12C271.947 25.4293 271.87 25.6613 271.715 25.816C271.566 25.9707 271.326 26.048 270.995 26.048H270.659V25.728H270.955C271.179 25.728 271.339 25.68 271.435 25.584C271.537 25.4933 271.587 25.328 271.587 25.088V19.656H271.947V25.12ZM276.93 19.656V24H276.57V23.056C276.447 23.3867 276.242 23.64 275.954 23.816C275.671 23.9867 275.346 24.072 274.978 24.072C274.46 24.072 274.036 23.9147 273.706 23.6C273.38 23.28 273.218 22.808 273.218 22.184V19.656H273.57V22.16C273.57 22.6773 273.7 23.0747 273.962 23.352C274.223 23.624 274.578 23.76 275.026 23.76C275.495 23.76 275.868 23.6107 276.146 23.312C276.428 23.0133 276.57 22.5707 276.57 21.984V19.656H276.93ZM280.202 19.568C280.719 19.568 281.141 19.728 281.466 20.048C281.791 20.3627 281.954 20.832 281.954 21.456V24H281.602V21.48C281.602 20.9627 281.471 20.568 281.21 20.296C280.949 20.0187 280.594 19.88 280.146 19.88C279.677 19.88 279.301 20.0293 279.018 20.328C278.741 20.6267 278.602 21.0693 278.602 21.656V24H278.242V19.656H278.602V20.576C278.725 20.2507 278.927 20.0027 279.21 19.832C279.498 19.656 279.829 19.568 280.202 19.568Z" fill="white"/>
<path d="M36.94 186.436V199H34.42V190.828L31.054 199H29.146L25.762 190.828V199H23.242V186.436H26.104L30.1 195.778L34.096 186.436H36.94ZM38.7835 193.978C38.7835 192.97 38.9815 192.076 39.3775 191.296C39.7855 190.516 40.3315 189.916 41.0155 189.496C41.7115 189.076 42.4855 188.866 43.3375 188.866C44.0815 188.866 44.7295 189.016 45.2815 189.316C45.8455 189.616 46.2955 189.994 46.6315 190.45V189.028H49.1695V199H46.6315V197.542C46.3075 198.01 45.8575 198.4 45.2815 198.712C44.7175 199.012 44.0635 199.162 43.3195 199.162C42.4795 199.162 41.7115 198.946 41.0155 198.514C40.3315 198.082 39.7855 197.476 39.3775 196.696C38.9815 195.904 38.7835 194.998 38.7835 193.978ZM46.6315 194.014C46.6315 193.402 46.5115 192.88 46.2715 192.448C46.0315 192.004 45.7075 191.668 45.2995 191.44C44.8915 191.2 44.4535 191.08 43.9855 191.08C43.5175 191.08 43.0855 191.194 42.6895 191.422C42.2935 191.65 41.9695 191.986 41.7175 192.43C41.4775 192.862 41.3575 193.378 41.3575 193.978C41.3575 194.578 41.4775 195.106 41.7175 195.562C41.9695 196.006 42.2935 196.348 42.6895 196.588C43.0975 196.828 43.5295 196.948 43.9855 196.948C44.4535 196.948 44.8915 196.834 45.2995 196.606C45.7075 196.366 46.0315 196.03 46.2715 195.598C46.5115 195.154 46.6315 194.626 46.6315 194.014ZM52.9087 187.84C52.4647 187.84 52.0927 187.702 51.7927 187.426C51.5047 187.138 51.3607 186.784 51.3607 186.364C51.3607 185.944 51.5047 185.596 51.7927 185.32C52.0927 185.032 52.4647 184.888 52.9087 184.888C53.3527 184.888 53.7187 185.032 54.0067 185.32C54.3067 185.596 54.4567 185.944 54.4567 186.364C54.4567 186.784 54.3067 187.138 54.0067 187.426C53.7187 187.702 53.3527 187.84 52.9087 187.84ZM54.1507 189.028V199H51.6307V189.028H54.1507ZM61.0684 199.162C60.1084 199.162 59.2444 198.952 58.4764 198.532C57.7084 198.1 57.1024 197.494 56.6584 196.714C56.2264 195.934 56.0104 195.034 56.0104 194.014C56.0104 192.994 56.2324 192.094 56.6764 191.314C57.1324 190.534 57.7504 189.934 58.5304 189.514C59.3104 189.082 60.1804 188.866 61.1404 188.866C62.1004 188.866 62.9704 189.082 63.7504 189.514C64.5304 189.934 65.1424 190.534 65.5864 191.314C66.0424 192.094 66.2704 192.994 66.2704 194.014C66.2704 195.034 66.0364 195.934 65.5684 196.714C65.1124 197.494 64.4884 198.1 63.6964 198.532C62.9164 198.952 62.0404 199.162 61.0684 199.162ZM61.0684 196.966C61.5244 196.966 61.9504 196.858 62.3464 196.642C62.7544 196.414 63.0784 196.078 63.3184 195.634C63.5584 195.19 63.6784 194.65 63.6784 194.014C63.6784 193.066 63.4264 192.34 62.9224 191.836C62.4304 191.32 61.8244 191.062 61.1044 191.062C60.3844 191.062 59.7784 191.32 59.2864 191.836C58.8064 192.34 58.5664 193.066 58.5664 194.014C58.5664 194.962 58.8004 195.694 59.2684 196.21C59.7484 196.714 60.3484 196.966 61.0684 196.966Z" fill="black"/>
<path d="M30.568 208.436V217.256C30.568 218.48 30.214 219.434 29.506 220.118C28.798 220.79 27.85 221.126 26.662 221.126C25.462 221.126 24.49 220.778 23.746 220.082C23.014 219.386 22.648 218.414 22.648 217.166H25.168C25.18 217.706 25.306 218.126 25.546 218.426C25.798 218.726 26.158 218.876 26.626 218.876C27.082 218.876 27.43 218.732 27.67 218.444C27.91 218.156 28.03 217.76 28.03 217.256V208.436H30.568ZM42.9216 211.028V221H40.3836V219.74C40.0596 220.172 39.6336 220.514 39.1056 220.766C38.5896 221.006 38.0256 221.126 37.4136 221.126C36.6336 221.126 35.9436 220.964 35.3436 220.64C34.7436 220.304 34.2696 219.818 33.9216 219.182C33.5856 218.534 33.4176 217.766 33.4176 216.878V211.028H35.9376V216.518C35.9376 217.31 36.1356 217.922 36.5316 218.354C36.9276 218.774 37.4676 218.984 38.1516 218.984C38.8476 218.984 39.3936 218.774 39.7896 218.354C40.1856 217.922 40.3836 217.31 40.3836 216.518V211.028H42.9216ZM50.934 210.884C52.122 210.884 53.082 211.262 53.814 212.018C54.546 212.762 54.912 213.806 54.912 215.15V221H52.392V215.492C52.392 214.7 52.194 214.094 51.798 213.674C51.402 213.242 50.862 213.026 50.178 213.026C49.482 213.026 48.93 213.242 48.522 213.674C48.126 214.094 47.928 214.7 47.928 215.492V221H45.408V211.028H47.928V212.27C48.264 211.838 48.69 211.502 49.206 211.262C49.734 211.01 50.31 210.884 50.934 210.884ZM62.9244 210.884C63.6804 210.884 64.3524 211.052 64.9404 211.388C65.5284 211.712 65.9844 212.198 66.3084 212.846C66.6444 213.482 66.8124 214.25 66.8124 215.15V221H64.2924V215.492C64.2924 214.7 64.0944 214.094 63.6984 213.674C63.3024 213.242 62.7624 213.026 62.0784 213.026C61.3824 213.026 60.8304 213.242 60.4224 213.674C60.0264 214.094 59.8284 214.7 59.8284 215.492V221H57.3084V207.68H59.8284V212.27C60.1524 211.838 60.5844 211.502 61.1244 211.262C61.6644 211.01 62.2644 210.884 62.9244 210.884ZM73.6368 221.162C72.6768 221.162 71.8128 220.952 71.0448 220.532C70.2768 220.1 69.6708 219.494 69.2268 218.714C68.7948 217.934 68.5788 217.034 68.5788 216.014C68.5788 214.994 68.8008 214.094 69.2448 213.314C69.7008 212.534 70.3188 211.934 71.0988 211.514C71.8788 211.082 72.7488 210.866 73.7088 210.866C74.6688 210.866 75.5388 211.082 76.3188 211.514C77.0988 211.934 77.7108 212.534 78.1548 213.314C78.6108 214.094 78.8388 214.994 78.8388 216.014C78.8388 217.034 78.6048 217.934 78.1368 218.714C77.6808 219.494 77.0568 220.1 76.2648 220.532C75.4848 220.952 74.6088 221.162 73.6368 221.162ZM73.6368 218.966C74.0928 218.966 74.5188 218.858 74.9148 218.642C75.3228 218.414 75.6468 218.078 75.8868 217.634C76.1268 217.19 76.2468 216.65 76.2468 216.014C76.2468 215.066 75.9948 214.34 75.4908 213.836C74.9988 213.32 74.3928 213.062 73.6728 213.062C72.9528 213.062 72.3468 213.32 71.8548 213.836C71.3748 214.34 71.1348 215.066 71.1348 216.014C71.1348 216.962 71.3688 217.694 71.8368 218.21C72.3168 218.714 72.9168 218.966 73.6368 218.966Z" fill="black"/>
<rect y="185" width="15" height="14" fill="#EB0029"/>
<rect y="208" width="15" height="14" fill="#BFF52F"/>
<rect x="308" width="20" height="18" rx="6" fill="#BFF52F"/>
<path d="M313.736 9.64H312.224V11.192H311.168V9.64H309.656V8.664H311.168V7.112H312.224V8.664H313.736V9.64ZM314.679 7.2V6.168H316.607V12H315.455V7.2H314.679ZM317.577 7.2V6.168H319.505V12H318.353V7.2H317.577ZM320.484 7.6C320.484 7.19467 320.601 6.87733 320.836 6.648C321.076 6.41867 321.382 6.304 321.756 6.304C322.129 6.304 322.433 6.41867 322.668 6.648C322.908 6.87733 323.028 7.19467 323.028 7.6C323.028 8.01067 322.908 8.33067 322.668 8.56C322.433 8.78933 322.129 8.904 321.756 8.904C321.382 8.904 321.076 8.78933 320.836 8.56C320.601 8.33067 320.484 8.01067 320.484 7.6ZM325.62 6.4L322.476 12H321.388L324.524 6.4H325.62ZM321.748 6.976C321.454 6.976 321.308 7.184 321.308 7.6C321.308 8.02133 321.454 8.232 321.748 8.232C321.892 8.232 322.004 8.18133 322.084 8.08C322.164 7.97333 322.204 7.81333 322.204 7.6C322.204 7.184 322.052 6.976 321.748 6.976ZM323.996 10.792C323.996 10.3813 324.113 10.064 324.348 9.84C324.588 9.61067 324.894 9.496 325.268 9.496C325.641 9.496 325.942 9.61067 326.172 9.84C326.406 10.064 326.524 10.3813 326.524 10.792C326.524 11.2027 326.406 11.5227 326.172 11.752C325.942 11.9813 325.641 12.096 325.268 12.096C324.889 12.096 324.582 11.9813 324.348 11.752C324.113 11.5227 323.996 11.2027 323.996 10.792ZM325.26 10.168C324.956 10.168 324.804 10.376 324.804 10.792C324.804 11.2133 324.956 11.424 325.26 11.424C325.558 11.424 325.708 11.2133 325.708 10.792C325.708 10.376 325.558 10.168 325.26 10.168Z" fill="#EB0029"/>
</svg>
