<svg width="156" height="45" viewBox="0 0 156 45" fill="none" xmlns="http://www.w3.org/2000/svg">
<rect width="53.5878" height="43.8444" transform="translate(0 0.332703)" fill="#EB0029"/>
<path d="M16.228 8.9087V10.5527H12.796V12.3287H15.364V13.9247H12.796V17.3327H10.744V8.9087H16.228Z" fill="#F2F2F2"/>
<path d="M29.728 17.4167C28.936 17.4167 28.208 17.2327 27.544 16.8647C26.888 16.4967 26.364 15.9847 25.972 15.3287C25.588 14.6647 25.396 13.9207 25.396 13.0967C25.396 12.2727 25.588 11.5327 25.972 10.8767C26.364 10.2207 26.888 9.7087 27.544 9.3407C28.208 8.9727 28.936 8.7887 29.728 8.7887C30.52 8.7887 31.244 8.9727 31.9 9.3407C32.564 9.7087 33.084 10.2207 33.46 10.8767C33.844 11.5327 34.036 12.2727 34.036 13.0967C34.036 13.9207 33.844 14.6647 33.46 15.3287C33.076 15.9847 32.556 16.4967 31.9 16.8647C31.244 17.2327 30.52 17.4167 29.728 17.4167ZM29.728 15.5447C30.4 15.5447 30.936 15.3207 31.336 14.8727C31.744 14.4247 31.948 13.8327 31.948 13.0967C31.948 12.3527 31.744 11.7607 31.336 11.3207C30.936 10.8727 30.4 10.6487 29.728 10.6487C29.048 10.6487 28.504 10.8687 28.096 11.3087C27.696 11.7487 27.496 12.3447 27.496 13.0967C27.496 13.8407 27.696 14.4367 28.096 14.8847C28.504 15.3247 29.048 15.5447 29.728 15.5447Z" fill="#F2F2F2"/>
<path d="M13.9 26.9087C14.788 26.9087 15.564 27.0847 16.228 27.4367C16.892 27.7887 17.404 28.2847 17.764 28.9247C18.132 29.5567 18.316 30.2887 18.316 31.1207C18.316 31.9447 18.132 32.6767 17.764 33.3167C17.404 33.9567 16.888 34.4527 16.216 34.8047C15.552 35.1567 14.78 35.3327 13.9 35.3327H10.744V26.9087H13.9ZM13.768 33.5567C14.544 33.5567 15.148 33.3447 15.58 32.9207C16.012 32.4967 16.228 31.8967 16.228 31.1207C16.228 30.3447 16.012 29.7407 15.58 29.3087C15.148 28.8767 14.544 28.6607 13.768 28.6607H12.796V33.5567H13.768Z" fill="#F2F2F2"/>
<path d="M28.728 35.4167C27.936 35.4167 27.208 35.2327 26.544 34.8647C25.888 34.4967 25.364 33.9847 24.972 33.3287C24.588 32.6647 24.396 31.9207 24.396 31.0967C24.396 30.2727 24.588 29.5327 24.972 28.8767C25.364 28.2207 25.888 27.7087 26.544 27.3407C27.208 26.9727 27.936 26.7887 28.728 26.7887C29.52 26.7887 30.244 26.9727 30.9 27.3407C31.564 27.7087 32.084 28.2207 32.46 28.8767C32.844 29.5327 33.036 30.2727 33.036 31.0967C33.036 31.9207 32.844 32.6647 32.46 33.3287C32.076 33.9847 31.556 34.4967 30.9 34.8647C30.244 35.2327 29.52 35.4167 28.728 35.4167ZM28.728 33.5447C29.4 33.5447 29.936 33.3207 30.336 32.8727C30.744 32.4247 30.948 31.8327 30.948 31.0967C30.948 30.3527 30.744 29.7607 30.336 29.3207C29.936 28.8727 29.4 28.6487 28.728 28.6487C28.048 28.6487 27.504 28.8687 27.096 29.3087C26.696 29.7487 26.496 30.3447 26.496 31.0967C26.496 31.8407 26.696 32.4367 27.096 32.8847C27.504 33.3247 28.048 33.5447 28.728 33.5447Z" fill="#F2F2F2"/>
<path d="M79.5737 17.1445C78.9817 17.1445 78.4857 16.9605 78.0857 16.5925C77.7017 16.2085 77.5097 15.7365 77.5097 15.1765C77.5097 14.6165 77.7017 14.1525 78.0857 13.7845C78.4857 13.4005 78.9817 13.2085 79.5737 13.2085C80.1657 13.2085 80.6537 13.4005 81.0377 13.7845C81.4377 14.1525 81.6377 14.6165 81.6377 15.1765C81.6377 15.7365 81.4377 16.2085 81.0377 16.5925C80.6537 16.9605 80.1657 17.1445 79.5737 17.1445ZM81.2297 18.7285V32.0245H77.8697V18.7285H81.2297ZM94.8934 15.2725V17.9845H87.9094V22.2805H93.2614V24.9445H87.9094V32.0245H84.5494V15.2725H94.8934ZM103.18 32.2405C101.9 32.2405 100.748 31.9605 99.724 31.4005C98.7 30.8245 97.892 30.0165 97.3 28.9765C96.724 27.9365 96.436 26.7365 96.436 25.3765C96.436 24.0165 96.732 22.8165 97.324 21.7765C97.932 20.7365 98.756 19.9365 99.796 19.3765C100.836 18.8005 101.996 18.5125 103.276 18.5125C104.556 18.5125 105.716 18.8005 106.756 19.3765C107.796 19.9365 108.612 20.7365 109.204 21.7765C109.812 22.8165 110.116 24.0165 110.116 25.3765C110.116 26.7365 109.804 27.9365 109.18 28.9765C108.572 30.0165 107.74 30.8245 106.684 31.4005C105.644 31.9605 104.476 32.2405 103.18 32.2405ZM103.18 29.3125C103.788 29.3125 104.356 29.1685 104.884 28.8805C105.428 28.5765 105.86 28.1285 106.18 27.5365C106.5 26.9445 106.66 26.2245 106.66 25.3765C106.66 24.1125 106.324 23.1445 105.652 22.4725C104.996 21.7845 104.188 21.4405 103.228 21.4405C102.268 21.4405 101.46 21.7845 100.804 22.4725C100.164 23.1445 99.844 24.1125 99.844 25.3765C99.844 26.6405 100.156 27.6165 100.78 28.3045C101.42 28.9765 102.22 29.3125 103.18 29.3125ZM118.485 32.2405C117.205 32.2405 116.053 31.9605 115.029 31.4005C114.005 30.8245 113.197 30.0165 112.605 28.9765C112.029 27.9365 111.741 26.7365 111.741 25.3765C111.741 24.0165 112.037 22.8165 112.629 21.7765C113.237 20.7365 114.061 19.9365 115.101 19.3765C116.141 18.8005 117.301 18.5125 118.581 18.5125C119.861 18.5125 121.021 18.8005 122.061 19.3765C123.101 19.9365 123.917 20.7365 124.509 21.7765C125.117 22.8165 125.421 24.0165 125.421 25.3765C125.421 26.7365 125.109 27.9365 124.485 28.9765C123.877 30.0165 123.045 30.8245 121.989 31.4005C120.949 31.9605 119.781 32.2405 118.485 32.2405ZM118.485 29.3125C119.093 29.3125 119.661 29.1685 120.189 28.8805C120.733 28.5765 121.165 28.1285 121.485 27.5365C121.805 26.9445 121.965 26.2245 121.965 25.3765C121.965 24.1125 121.629 23.1445 120.957 22.4725C120.301 21.7845 119.493 21.4405 118.533 21.4405C117.573 21.4405 116.765 21.7845 116.109 22.4725C115.469 23.1445 115.149 24.1125 115.149 25.3765C115.149 26.6405 115.461 27.6165 116.085 28.3045C116.725 28.9765 117.525 29.3125 118.485 29.3125ZM127.021 25.3285C127.021 23.9845 127.285 22.7925 127.813 21.7525C128.357 20.7125 129.093 19.9125 130.021 19.3525C130.949 18.7925 131.981 18.5125 133.117 18.5125C133.981 18.5125 134.805 18.7045 135.589 19.0885C136.373 19.4565 136.997 19.9525 137.461 20.5765V14.2645H140.869V32.0245H137.461V30.0565C137.045 30.7125 136.461 31.2405 135.709 31.6405C134.957 32.0405 134.085 32.2405 133.093 32.2405C131.973 32.2405 130.949 31.9525 130.021 31.3765C129.093 30.8005 128.357 29.9925 127.813 28.9525C127.285 27.8965 127.021 26.6885 127.021 25.3285ZM137.485 25.3765C137.485 24.5605 137.325 23.8645 137.005 23.2885C136.685 22.6965 136.253 22.2485 135.709 21.9445C135.165 21.6245 134.581 21.4645 133.957 21.4645C133.333 21.4645 132.757 21.6165 132.229 21.9205C131.701 22.2245 131.269 22.6725 130.933 23.2645C130.613 23.8405 130.453 24.5285 130.453 25.3285C130.453 26.1285 130.613 26.8325 130.933 27.4405C131.269 28.0325 131.701 28.4885 132.229 28.8085C132.773 29.1285 133.349 29.2885 133.957 29.2885C134.581 29.2885 135.165 29.1365 135.709 28.8325C136.253 28.5125 136.685 28.0645 137.005 27.4885C137.325 26.8965 137.485 26.1925 137.485 25.3765Z" fill="black"/>
</svg>
